{"asset": {"version": "2.0", "generator": "usd_feet_to_gltf.py", "copyright": "Quaternius (CC0 1.0)"}, "scene": 0, "scenes": [{"nodes": [0]}], "nodes": [{"name": "shoe", "mesh": 0}], "meshes": [{"name": "shoe", "primitives": [{"attributes": {"POSITION": 0, "NORMAL": 1}, "material": 0}, {"attributes": {"POSITION": 2, "NORMAL": 3}, "material": 1}]}], "materials": [{"name": "Purple", "pbrMetallicRoughness": {"baseColorFactor": [0.06301002949476242, 0.038204375654459, 0.10461650043725967, 1], "metallicFactor": 0, "roughnessFactor": 0.7}}, {"name": "White", "pbrMetallicRoughness": {"baseColorFactor": [0.45752230286598206, 0.45752230286598206, 0.45752230286598206, 1], "metallicFactor": 0, "roughnessFactor": 0.7}}], "accessors": [{"bufferView": 0, "componentType": 5126, "count": 384, "type": "VEC3", "min": [-0.058201950043439865, 0.023882298730313778, -0.0009918658761307597], "max": [0.058201950043439865, 0.11857900116592646, 0.2866884469985962]}, {"bufferView": 1, "componentType": 5126, "count": 384, "type": "VEC3"}, {"bufferView": 2, "componentType": 5126, "count": 384, "type": "VEC3", "min": [-0.058201950043439865, 0.0, -0.0007783496403135359], "max": [0.058201950043439865, 0.13842012081295252, 0.2866884469985962]}, {"bufferView": 3, "componentType": 5126, "count": 384, "type": "VEC3"}], "bufferViews": [{"buffer": 0, "byteOffset": 0, "byteLength": 4608, "target": 34962}, {"buffer": 0, "byteOffset": 4608, "byteLength": 4608, "target": 34962}, {"buffer": 0, "byteOffset": 9216, "byteLength": 4608, "target": 34962}, {"buffer": 0, "byteOffset": 13824, "byteLength": 4608, "target": 34962}], "buffers": [{"byteLength": 18432, "uri": "data:application/octet-stream;base64,"}]}